<svg viewBox="0 0 1012 1129" fill="none" xmlns="http://www.w3.org/2000/svg">
  <path d="M809.256 85.874C617.282 -43.119 349.395 -25.1278 172.603 128.645C121.652 173.894 80.234 228.959 50.7957 290.586C21.3573 352.214 4.49628 419.154 1.20905 487.45C-8.93927 650.674 45.1074 811.368 151.685 934.852C295.75 1098.47 467.481 1126.3 474.566 1127.66H478.615C485.773 1127.66 492.639 1124.8 497.7 1119.71C502.762 1114.62 505.606 1107.71 505.606 1100.51C505.57 1096.41 504.645 1092.38 502.897 1088.69C501.148 1084.99 498.618 1081.73 495.484 1079.12C392.243 996.632 336.237 917.2 336.237 855.758C397.958 897.774 470.565 920.669 545.081 921.613C707.702 921.613 765.396 853.382 765.396 794.656C765.396 726.426 678.687 682.976 545.081 682.976C443.526 682.976 363.565 720.316 319.705 769.197C287.719 735.864 269.406 691.619 268.421 645.296C267.784 608.622 277.117 572.47 295.413 540.744C311.116 554.786 328.449 566.867 347.033 576.726C461.745 638.168 644.948 638.168 733.006 576.726C746.419 568.427 757.414 556.711 764.879 542.762C772.344 528.813 776.014 513.128 775.517 497.294C771.469 421.935 650.683 373.732 540.357 374.75C437.116 376.108 355.805 402.925 298.449 454.183C292.75 439.956 289.995 424.709 290.352 409.375C290.352 374.072 313.294 338.768 353.443 309.914C412.824 267.143 526.524 232.519 658.106 268.161L636.513 279.703C631.921 282.284 628.508 286.562 626.997 291.631C625.486 296.7 625.994 302.161 628.416 306.859C630.216 310.038 632.816 312.684 635.955 314.531C639.094 316.378 642.661 317.362 646.297 317.382C649.687 317.279 653.019 316.47 656.082 315.006L727.608 275.629C732.132 272.982 735.485 268.704 736.989 263.661C738.492 258.618 738.034 253.188 735.706 248.473L696.568 176.509C695.372 174.101 693.716 171.955 691.695 170.191C689.675 168.428 687.328 167.082 684.791 166.231C682.253 165.38 679.574 165.04 676.905 165.231C674.237 165.422 671.632 166.14 669.24 167.343C666.847 168.547 664.714 170.213 662.961 172.246C661.209 174.279 659.871 176.64 659.025 179.193C658.179 181.746 657.841 184.442 658.031 187.127C658.221 189.811 658.934 192.432 660.13 194.839C660.468 195.179 660.468 195.518 660.805 195.858L671.264 215.206C546.093 181.94 411.474 200.61 321.729 265.446C267.409 304.483 237.044 355.401 236.032 408.356C235.531 439.742 243.707 470.651 259.649 497.633C229.595 541.01 213.786 592.763 214.439 645.636C214.942 677.902 221.892 709.737 234.876 739.246C247.859 768.754 266.611 795.333 290.014 817.4C285.19 829.729 282.674 842.849 282.592 856.098C282.592 910.75 311.607 970.155 366.939 1033.29C300.874 1000.42 241.667 955.138 192.509 899.888C95.1401 786.829 45.8243 639.805 55.1913 490.505C58.0912 429.477 73.1088 369.651 99.3584 314.557C125.608 259.463 162.558 210.215 208.029 169.719C366.602 31.9006 606.823 15.6068 778.891 131.361C927.005 230.821 988.41 412.09 942.862 615.764C905.412 783.454 804.196 948.43 658.443 1080.48C655.636 1082.83 653.326 1085.72 651.65 1088.98C649.974 1092.24 648.966 1095.81 648.686 1099.47C648.407 1103.13 648.861 1106.81 650.022 1110.3C651.183 1113.78 653.028 1116.99 655.446 1119.74C657.864 1122.49 660.807 1124.73 664.099 1126.31C667.392 1127.9 670.968 1128.8 674.614 1128.97C678.261 1129.14 681.904 1128.57 685.327 1127.3C688.751 1126.02 691.885 1124.07 694.544 1121.55V1121.55C848.731 981.696 956.021 806.537 995.833 627.305C1046.44 400.888 976.601 198.573 809.256 85.874ZM545.418 737.289C658.781 737.289 711.751 771.234 711.751 794.317C711.751 829.281 659.793 866.621 545.418 866.621C478.831 865.675 414.153 844.102 360.191 804.84C392.581 769.197 457.359 737.289 545.418 737.289ZM541.707 428.724C638.875 427.027 720.523 470.816 721.873 500.009C721.873 504.422 722.885 517.661 702.641 531.918C632.127 581.139 468.831 579.442 373.012 528.524C357.591 520.502 343.295 510.457 330.501 498.652C383.134 449.77 463.77 429.742 541.707 428.724V428.724Z" fill="currentColor" />
</svg>
