<svg
  class="lookback-logo"
  version="1.1"
  xmlns="http://www.w3.org/2000/svg"
  viewBox="0 0 86 16"
  xmlSpace="preserve"
  width="86"
  style="fill: var(--color-blue-800)">
  <title>Lookback Logotype</title>
  <path
      d="M49.7403 5.27034C48.4073 5.27034 47.5258 5.82677 46.3433 6.76115V0.167979L46.0208 1.25155e-09L41.9358 1.92126V2.21522L43.516 3.1811V15.1811C44.9673 15.811 46.268 15.979 47.601 15.979C50.5788 15.979 53.5135 13.9633 53.5135 10.1837C53.5028 7.35958 51.901 5.27034 49.7403 5.27034ZM48.2353 14.5197C47.4398 14.5197 46.8377 14.1627 46.3325 13.5538V7.54856C46.9064 7.412 47.4941 7.33806 48.0848 7.32808C49.536 7.32808 50.4928 8.50394 50.4928 10.8871C50.5035 13.1969 49.7618 14.5197 48.2353 14.5197Z"
  />
  <path
      d="M62.5865 14.0682V9.37533C62.5865 6.70866 61.5545 5.25984 58.9638 5.25984C57.2868 5.25984 55.9108 5.85827 54.7067 7.03412L55.169 7.94751C56.0505 7.39108 56.889 7.05512 57.749 7.05512C59.1788 7.05512 59.7378 7.89501 59.7378 9.53281V9.96325C55.4808 10.3937 54.2445 11.79 54.2445 13.5958C54.2445 15.3701 55.5023 15.979 56.6847 15.979C57.6953 15.979 58.7273 15.5486 59.7378 14.8766V15.7165H63.8013V14.1837H62.694L62.5865 14.0682ZM59.7593 14.0367C59.3257 14.1627 58.8781 14.2368 58.4263 14.2572C57.5877 14.2572 56.9965 13.8478 57.0288 12.9344C57.0503 11.853 57.8458 11.3281 59.7593 11.1601V14.0367Z"
  />
  <path
      d="M70.649 14.3097C68.9505 14.3097 67.3488 12.9659 67.3488 9.95276C67.3488 7.81102 68.0153 6.65617 69.273 6.65617C69.789 6.65617 70.1868 6.84514 70.6275 7.2126L72.498 9.65879H72.8205V5.79528C71.8985 5.45869 70.9237 5.28107 69.9395 5.27034C66.4887 5.27034 64.3495 7.71654 64.3495 10.8661C64.3495 13.9423 66.3167 15.958 69.3913 15.958C70.8141 15.9783 72.1937 15.4805 73.2613 14.5617L72.799 13.7218C72.0573 14.1417 71.4338 14.3097 70.649 14.3097Z"
  />
  <path
      d="M84.4735 14.1837L81.1518 9.6168L85.5055 5.70079V5.51181H80.066V5.72179L81.4743 7.06562L78.3245 10.3412L82.1085 15.727H86V14.1837H84.4735Z"
  />
  <path
      d="M78.1203 14.0682V0.167979L77.7763 0L73.7128 1.92126V2.20472L75.293 3.1706V14.0682L75.164 14.1837H74.0568V15.727H79.3565V14.1837H78.2493L78.1203 14.0682Z"
  />
  <path d="M2.52625 1.5853H0V15.748H8.54625V13.4698H2.52625V1.5853Z" />
  <path
      d="M14.018 5.29134C10.9005 5.29134 8.54625 7.59055 8.54625 10.6352C8.54625 13.6798 10.9005 16 14.018 16C17.1355 16 19.5112 13.6903 19.5112 10.6352C19.5112 7.58005 17.157 5.29134 14.018 5.29134ZM14.018 13.7743C12.2765 13.7743 10.965 12.4304 10.965 10.6457C10.965 8.86089 12.2765 7.52756 14.018 7.52756C15.738 7.52756 17.0925 8.89239 17.0925 10.6352C17.0925 12.4199 15.781 13.7743 14.018 13.7743Z"
  />
  <path
      d="M25.8 5.28084C22.6825 5.28084 20.3283 7.58005 20.3283 10.6247C20.3283 13.6693 22.6825 15.9895 25.8 15.9895C28.9175 15.9895 31.2933 13.6798 31.2933 10.6247C31.2933 7.56955 28.9283 5.28084 25.8 5.28084ZM25.8 13.7533C24.0585 13.7533 22.747 12.4094 22.747 10.6247C22.747 8.8399 24.0585 7.51706 25.8 7.51706C27.52 7.51706 28.8745 8.88189 28.8745 10.6247C28.8745 12.4094 27.5522 13.7533 25.8 13.7533Z"
  />
  <path
      d="M41.4305 5.52231H38.141L35.0128 8.69291V1.07087H32.594V15.727H35.0128V11.2231L39.2483 15.727H42.4195L37.0015 9.95276L41.4305 5.52231Z"
  />
</svg>
