<svg class="lookback-logo" width="150" x="0px" y="0px"
  	 viewBox="37.9 217.4 901.3 119.9">
		<path d="M232,217.4c-13.8,0-30.8,8.4-52.3,25.7c-5.7,4.7-10.9,9.1-15.3,13.1c-4.2-3.9-9.4-8.4-15.3-13.1
			c-21.2-17.3-38.5-25.7-52-25.7c-32.6,0-59.2,26.9-59.2,59.7c0,33.1,26.6,59.7,59.2,59.7c13.8,0,30.8-8.4,52.3-25.7
			c5.7-4.7,10.9-9.1,15.3-13.1c4.2,3.9,9.4,8.4,15.3,13.1c21.5,17.3,38.5,25.7,52.3,25.7c32.6,0,59.2-26.9,59.2-59.7
			C291.2,244.3,264.5,217.4,232,217.4z M130.3,287.4c-22.4,17.8-31.8,18.7-33.3,18.7c-15.8,0-28.6-13.1-28.6-29.1S81.3,248,97,248
			c1.7,0,10.9,1,33.3,18.7c4.4,3.5,8.6,7.2,12.1,10.4C138.7,280.3,134.8,283.7,130.3,287.4z M173,290l-19.5-2.6l-1.5-19.4
			l12.4-11.9l2.6,19.4l19.6,1.5L173,290z M232,306.2c-1.7,0-10.9-1-33.3-18.7c-4.4-3.5-8.6-7.2-12.1-10.4
			c3.5-3.2,7.6-6.7,11.8-10.1c22.4-18,31.8-19,33.3-19c15.8,0,28.6,13.1,28.6,29.1C260.6,293.1,247.7,306.2,232,306.2z"/>
  </svg>
